<svg width="30" height="22" viewBox="0 0 30 22" fill="none" xmlns="http://www.w3.org/2000/svg">
<path d="M11.5858 20.8932L11.5777 20.8897L11.552 20.8757C11.4018 20.7931 11.2529 20.7083 11.1052 20.6214C9.32928 19.5661 7.66965 18.3265 6.15383 16.923C3.46933 14.4182 0.625 10.7012 0.625 6.12319C0.625 2.70719 3.49967 -0.00180931 6.96933 -0.00180931C7.93388 -0.00653364 8.88708 0.206255 9.75804 0.62073C10.629 1.03521 11.3953 1.6407 12 2.39219C12.6048 1.64055 13.3713 1.03496 14.2425 0.620476C15.1137 0.205994 16.0671 -0.00670932 17.0318 -0.00180931C20.5003 -0.00180931 23.375 2.70719 23.375 6.12319C23.375 10.7024 20.5307 14.4194 17.8462 16.9219C16.3304 18.3253 14.6707 19.565 12.8948 20.6202C12.7471 20.7075 12.5982 20.7927 12.448 20.8757L12.4223 20.8897L12.4142 20.8944L12.4107 20.8955C12.2842 20.9625 12.1432 20.9976 12 20.9976C11.8568 20.9976 11.7158 20.9625 11.5893 20.8955L11.5858 20.8932Z" fill="white"/>
<path d="M21.8933 18.7402L25.0833 11.8701H22.8833V7.42473L19.5833 14.2948H21.8933V18.7402ZM22.3333 21.1649C21.3189 21.1649 20.3656 20.9527 19.4733 20.5284C18.5811 20.1041 17.805 19.5282 17.145 18.8008C16.485 18.0734 15.9625 17.218 15.5775 16.2346C15.1925 15.2512 15 14.2005 15 13.0824C15 11.9644 15.1925 10.9137 15.5775 9.93029C15.9625 8.94693 16.485 8.09154 17.145 7.36412C17.805 6.6367 18.5811 6.06082 19.4733 5.63649C20.3656 5.21216 21.3189 5 22.3333 5C23.3478 5 24.3011 5.21216 25.1933 5.63649C26.0856 6.06082 26.8617 6.6367 27.5217 7.36412C28.1817 8.09154 28.7042 8.94693 29.0892 9.93029C29.4742 10.9137 29.6667 11.9644 29.6667 13.0824C29.6667 14.2005 29.4742 15.2512 29.0892 16.2346C28.7042 17.218 28.1817 18.0734 27.5217 18.8008C26.8617 19.5282 26.0856 20.1041 25.1933 20.5284C24.3011 20.9527 23.3478 21.1649 22.3333 21.1649Z" fill="#894189"/>
<path d="M22.2667 18.2258L25.1667 11.9802H23.1667V7.93901L20.1667 14.1845H22.2667V18.2258ZM22.6667 20.4301C21.7444 20.4301 20.8778 20.2372 20.0667 19.8514C19.2556 19.4657 18.55 18.9422 17.95 18.2809C17.35 17.6196 16.875 16.842 16.525 15.948C16.175 15.054 16 14.0988 16 13.0824C16 12.066 16.175 11.1108 16.525 10.2168C16.875 9.32283 17.35 8.5452 17.95 7.88391C18.55 7.22262 19.2556 6.69909 20.0667 6.31334C20.8778 5.92759 21.7444 5.73471 22.6667 5.73471C23.5889 5.73471 24.4556 5.92759 25.2667 6.31334C26.0778 6.69909 26.7833 7.22262 27.3833 7.88391C27.9833 8.5452 28.4583 9.32283 28.8083 10.2168C29.1583 11.1108 29.3333 12.066 29.3333 13.0824C29.3333 14.0988 29.1583 15.054 28.8083 15.948C28.4583 16.842 27.9833 17.6196 27.3833 18.2809C26.7833 18.9422 26.0778 19.4657 25.2667 19.8514C24.4556 20.2372 23.5889 20.4301 22.6667 20.4301Z" fill="white"/>
</svg>
